<svg width="294" height="94" viewBox="0 0 294 94" fill="none" xmlns="http://www.w3.org/2000/svg">
<path opacity="0.15" d="M10.9449 81.8583C10.9449 83.001 14.4275 84.0968 20.6265 84.9048C26.8256 85.7127 35.2332 86.1666 44 86.1666C52.7667 86.1666 61.1744 85.7127 67.3734 84.9048C73.5724 84.0968 77.055 83.001 77.055 81.8583C77.055 80.7157 73.5724 79.6198 67.3734 78.8119C61.1744 78.0039 52.7667 77.55 44 77.55C35.2332 77.55 26.8256 78.0039 20.6265 78.8119C14.4275 79.6198 10.9449 80.7157 10.9449 81.8583Z" fill="#45413C"/>
<path d="M52.8917 17.435H35.1084C18.6084 17.435 5.18835 29.645 5.18835 46.1817C5.18835 64.57 20.1667 80.6667 38.5 80.6667H49.5C67.8334 80.6667 82.83 64.57 82.83 46.1817C82.8117 29.645 69.41 17.435 52.8917 17.435Z" fill="#FF6242"/>
<path d="M49.5001 70.84H38.5C21.7984 70.84 8.03004 57.6033 5.50004 41.5067C5.2275 43.0811 5.08646 44.6755 5.07837 46.2733C5.18837 64.57 20.1667 80.6667 38.5 80.6667H49.5001C67.8334 80.6667 82.8301 64.57 82.8301 46.1817C82.822 44.5838 82.6809 42.9895 82.4084 41.415C79.9517 57.6033 66.1834 70.84 49.5001 70.84Z" fill="#E04122"/>
<path d="M52.8917 17.435H35.1084C18.6084 17.435 5.18835 29.645 5.18835 46.1817C5.18835 64.57 20.1667 80.6667 38.5 80.6667H49.5C67.8334 80.6667 82.83 64.57 82.83 46.1817C82.8117 29.645 69.41 17.435 52.8917 17.435Z" stroke="#45413C" stroke-linecap="round" stroke-linejoin="round"/>
<path d="M44.3484 29.205C49.9499 30.7129 55.2949 33.0487 60.2067 36.135C60.4416 36.2812 60.7138 36.3562 60.9904 36.3508C61.2669 36.3454 61.536 36.2599 61.765 36.1047C61.994 35.9495 62.173 35.7311 62.2804 35.4762C62.3878 35.2212 62.4189 34.9406 62.3701 34.6683C61.8235 30.7229 59.9173 27.0919 56.98 24.4017C56.8062 24.2616 56.6685 24.0817 56.5786 23.8773C56.4888 23.6728 56.4494 23.4498 56.4638 23.227C56.4781 23.0041 56.5459 22.788 56.6612 22.5968C56.7766 22.4056 56.9363 22.2449 57.1267 22.1283C59.5218 20.9358 62.0791 20.1019 64.7167 19.6533C65.0092 19.5975 65.2769 19.4517 65.4825 19.2364C65.6882 19.0211 65.8215 18.747 65.8639 18.4523C65.9063 18.1576 65.8556 17.857 65.719 17.5925C65.5824 17.328 65.3666 17.1127 65.1017 16.9767C61.7445 15.1388 57.91 14.3591 54.1017 14.74C50.685 15.0897 47.4993 16.6273 45.1001 19.085C44.963 19.2292 44.7981 19.3441 44.6153 19.4225C44.4325 19.501 44.2357 19.5415 44.0367 19.5415C43.8378 19.5415 43.6409 19.501 43.4581 19.4225C43.2753 19.3441 43.1104 19.2292 42.9734 19.085C40.5757 16.5927 37.3745 15.0278 33.9351 14.6667C30.1267 14.2858 26.2922 15.0655 22.9351 16.9033C22.6702 17.0393 22.4544 17.2546 22.3178 17.5192C22.1812 17.7837 22.1305 18.0843 22.1729 18.379C22.2153 18.6737 22.3486 18.9478 22.5542 19.1631C22.7599 19.3784 23.0276 19.5241 23.3201 19.58C25.9577 20.0286 28.515 20.8625 30.9101 22.055C31.1005 22.1716 31.2601 22.3323 31.3755 22.5235C31.4909 22.7146 31.5586 22.9308 31.573 23.1536C31.5874 23.3765 31.548 23.5995 31.4581 23.8039C31.3683 24.0084 31.2306 24.1882 31.0567 24.3283C28.1044 27.0373 26.1969 30.6967 25.6667 34.6683C25.6178 34.9406 25.649 35.2212 25.7563 35.4762C25.8637 35.7311 26.0428 35.9495 26.2717 36.1047C26.5007 36.2599 26.7698 36.3454 27.0464 36.3508C27.323 36.3562 27.5952 36.2812 27.8301 36.135C32.7418 33.0487 38.0868 30.7129 43.6884 29.205C43.9056 29.1555 44.1312 29.1555 44.3484 29.205Z" fill="#6DD627"/>
<path d="M23.2833 19.6533C23.98 19.7817 24.7317 19.965 25.4833 20.1483C28.1675 19.0933 31.0702 18.7155 33.935 19.0483C37.3518 19.398 40.5374 20.9357 42.9367 23.3933C43.0737 23.5376 43.2386 23.6524 43.4214 23.7309C43.6042 23.8094 43.8011 23.8498 44 23.8498C44.1989 23.8498 44.3958 23.8094 44.5786 23.7309C44.7614 23.6524 44.9263 23.5376 45.0633 23.3933C47.4626 20.9357 50.6483 19.398 54.065 19.0483C56.9298 18.7155 59.8325 19.0933 62.5167 20.1483C63.2683 19.965 64.02 19.7817 64.7167 19.6533C65.0091 19.5975 65.2768 19.4517 65.4825 19.2364C65.6881 19.0211 65.8214 18.747 65.8638 18.4523C65.9062 18.1576 65.8556 17.857 65.7189 17.5925C65.5823 17.328 65.3665 17.1127 65.1017 16.9767C61.7445 15.1388 57.91 14.3591 54.1017 14.74C50.6849 15.0897 47.4993 16.6273 45.1 19.085C44.963 19.2292 44.7981 19.3441 44.6153 19.4225C44.4325 19.501 44.2356 19.5415 44.0367 19.5415C43.8377 19.5415 43.6409 19.501 43.4581 19.4225C43.2753 19.3441 43.1104 19.2292 42.9733 19.085C40.5757 16.5927 37.3745 15.0278 33.935 14.6667C30.1267 14.2858 26.2922 15.0655 22.935 16.9033C22.6391 17.0197 22.3904 17.2314 22.2283 17.505C22.0661 17.7785 21.9998 18.0983 22.0398 18.4138C22.0797 18.7293 22.2237 19.0224 22.4489 19.2469C22.6741 19.4714 22.9678 19.6144 23.2833 19.6533Z" fill="#9CEB60"/>
<path d="M44.3484 29.205C49.9499 30.7129 55.2949 33.0487 60.2067 36.135C60.4416 36.2812 60.7138 36.3562 60.9904 36.3508C61.2669 36.3454 61.536 36.2599 61.765 36.1047C61.994 35.9495 62.173 35.7311 62.2804 35.4762C62.3878 35.2212 62.4189 34.9406 62.3701 34.6683C61.8235 30.7229 59.9173 27.0919 56.98 24.4017C56.8062 24.2616 56.6685 24.0817 56.5786 23.8773C56.4888 23.6728 56.4494 23.4498 56.4638 23.227C56.4781 23.0041 56.5459 22.788 56.6612 22.5968C56.7766 22.4056 56.9363 22.2449 57.1267 22.1283C59.5218 20.9358 62.0791 20.1019 64.7167 19.6533C65.0092 19.5975 65.2769 19.4517 65.4825 19.2364C65.6882 19.0211 65.8215 18.747 65.8639 18.4523C65.9063 18.1576 65.8556 17.857 65.719 17.5925C65.5824 17.328 65.3666 17.1127 65.1017 16.9767C61.7445 15.1388 57.91 14.3591 54.1017 14.74C50.685 15.0897 47.4993 16.6273 45.1001 19.085C44.963 19.2292 44.7981 19.3441 44.6153 19.4225C44.4325 19.501 44.2357 19.5415 44.0367 19.5415C43.8378 19.5415 43.6409 19.501 43.4581 19.4225C43.2753 19.3441 43.1104 19.2292 42.9734 19.085C40.5757 16.5927 37.3745 15.0278 33.9351 14.6667C30.1267 14.2858 26.2922 15.0655 22.9351 16.9033C22.6702 17.0393 22.4544 17.2546 22.3178 17.5192C22.1812 17.7837 22.1305 18.0843 22.1729 18.379C22.2153 18.6737 22.3486 18.9478 22.5542 19.1631C22.7599 19.3784 23.0276 19.5241 23.3201 19.58C25.9577 20.0286 28.515 20.8625 30.9101 22.055C31.1005 22.1716 31.2601 22.3323 31.3755 22.5235C31.4909 22.7146 31.5586 22.9308 31.573 23.1536C31.5874 23.3765 31.548 23.5995 31.4581 23.8039C31.3683 24.0084 31.2306 24.1882 31.0567 24.3283C28.1044 27.0373 26.1969 30.6967 25.6667 34.6683C25.6178 34.9406 25.649 35.2212 25.7563 35.4762C25.8637 35.7311 26.0428 35.9495 26.2717 36.1047C26.5007 36.2599 26.7698 36.3454 27.0464 36.3508C27.323 36.3562 27.5952 36.2812 27.8301 36.135C32.7418 33.0487 38.0868 30.7129 43.6884 29.205C43.9056 29.1555 44.1312 29.1555 44.3484 29.205Z" stroke="#45413C" stroke-linecap="round" stroke-linejoin="round"/>
<path d="M41.1216 24.09C40.9807 19.5793 42.5304 15.1787 45.4666 11.7517C45.7217 11.5051 46.0232 11.3116 46.3537 11.1826C46.6841 11.0535 47.037 10.9915 47.3916 11C48.0255 10.9924 48.6528 11.1304 49.225 11.4033C49.5029 11.5328 49.7476 11.7238 49.9406 11.962C50.1335 12.2002 50.2697 12.4793 50.3386 12.778C50.4075 13.0767 50.4075 13.3872 50.3384 13.6859C50.2693 13.9846 50.133 14.2636 49.94 14.5017C48.1316 17.4763 46.8248 20.728 46.0716 24.1267" fill="#6DD627"/>
<path d="M41.1216 24.09C40.9807 19.5793 42.5304 15.1787 45.4666 11.7517C45.7217 11.5051 46.0232 11.3116 46.3537 11.1826C46.6841 11.0535 47.037 10.9915 47.3916 11C48.0255 10.9924 48.6528 11.1304 49.225 11.4033C49.5029 11.5328 49.7476 11.7238 49.9406 11.962C50.1335 12.2002 50.2697 12.4793 50.3386 12.778C50.4075 13.0767 50.4075 13.3872 50.3384 13.6859C50.2693 13.9846 50.133 14.2636 49.94 14.5017C48.1316 17.4763 46.8248 20.728 46.0716 24.1267" stroke="#45413C" stroke-linecap="round" stroke-linejoin="round"/>
<path d="M115.753 10.61C116.435 10.742 116.941 10.973 117.271 11.303C117.623 11.633 117.799 12.018 117.799 12.458C117.799 13.184 117.59 13.712 117.172 14.042C116.776 14.372 116.138 14.504 115.258 14.438C113.278 14.284 111.727 14.185 110.605 14.141C109.505 14.075 108.053 14.031 106.249 14.009C105.435 18.057 104.687 22.127 104.005 26.219C103.763 27.715 103.51 29.453 103.246 31.433C102.982 33.391 102.806 34.975 102.718 36.185C102.674 36.823 102.41 37.318 101.926 37.67C101.442 38 100.859 38.165 100.177 38.165C99.451 38.165 98.89 37.989 98.494 37.637C98.098 37.285 97.9 36.823 97.9 36.251C97.9 35.723 97.977 34.854 98.131 33.644C98.307 32.412 98.505 31.125 98.725 29.783C98.967 28.441 99.154 27.275 99.286 26.285C99.528 24.613 99.803 22.952 100.111 21.302C100.419 19.652 100.727 18.09 101.035 16.616C101.101 16.286 101.178 15.912 101.266 15.494C101.354 15.054 101.453 14.57 101.563 14.042C99.407 14.108 97.713 14.284 96.481 14.57C95.249 14.856 94.369 15.263 93.841 15.791C93.335 16.297 93.082 16.957 93.082 17.771C93.082 18.519 93.302 19.234 93.742 19.916C93.83 20.07 93.874 20.235 93.874 20.411C93.874 20.829 93.621 21.225 93.115 21.599C92.631 21.951 92.125 22.127 91.597 22.127C91.223 22.127 90.915 22.017 90.673 21.797C90.233 21.423 89.87 20.895 89.584 20.213C89.298 19.509 89.155 18.717 89.155 17.837C89.155 15.967 89.76 14.471 90.97 13.349C92.202 12.205 94.061 11.369 96.547 10.841C99.055 10.313 102.267 10.049 106.183 10.049C108.603 10.049 110.528 10.093 111.958 10.181C113.41 10.269 114.675 10.412 115.753 10.61ZM126.459 27.869C126.745 27.869 126.965 28.012 127.119 28.298C127.273 28.584 127.35 28.947 127.35 29.387C127.35 30.443 127.031 31.07 126.393 31.268C125.073 31.73 123.621 31.994 122.037 32.06C121.619 33.908 120.794 35.393 119.562 36.515C118.33 37.615 116.933 38.165 115.371 38.165C114.051 38.165 112.918 37.846 111.972 37.208C111.048 36.57 110.344 35.723 109.86 34.667C109.376 33.611 109.134 32.467 109.134 31.235C109.134 29.563 109.453 28.078 110.091 26.78C110.729 25.46 111.609 24.437 112.731 23.711C113.853 22.963 115.096 22.589 116.46 22.589C118.132 22.589 119.474 23.172 120.486 24.338C121.52 25.482 122.125 26.901 122.301 28.595C123.335 28.529 124.567 28.309 125.997 27.935C126.173 27.891 126.327 27.869 126.459 27.869ZM115.635 34.667C116.339 34.667 116.944 34.381 117.45 33.809C117.978 33.237 118.33 32.412 118.506 31.334C117.824 30.872 117.296 30.267 116.922 29.519C116.57 28.771 116.394 27.979 116.394 27.143C116.394 26.791 116.427 26.439 116.493 26.087H116.328C115.448 26.087 114.711 26.516 114.117 27.374C113.545 28.21 113.259 29.398 113.259 30.938C113.259 32.148 113.49 33.072 113.952 33.71C114.436 34.348 114.997 34.667 115.635 34.667ZM126.861 38.165C126.025 38.165 125.431 37.725 125.079 36.845C124.749 35.965 124.584 34.557 124.584 32.621C124.584 29.761 124.991 27.044 125.805 24.47C126.003 23.832 126.322 23.37 126.762 23.084C127.224 22.776 127.862 22.622 128.676 22.622C129.116 22.622 129.424 22.677 129.6 22.787C129.776 22.897 129.864 23.106 129.864 23.414C129.864 23.766 129.699 24.558 129.369 25.79C129.149 26.67 128.973 27.44 128.841 28.1C128.709 28.738 128.599 29.541 128.511 30.509C129.105 28.793 129.809 27.341 130.623 26.153C131.459 24.965 132.306 24.085 133.164 23.513C134.044 22.919 134.869 22.622 135.639 22.622C136.409 22.622 136.948 22.798 137.256 23.15C137.586 23.502 137.751 24.041 137.751 24.767C137.751 25.471 137.542 26.747 137.124 28.595C136.948 29.387 136.827 29.981 136.761 30.377C137.861 27.671 139.082 25.702 140.424 24.47C141.766 23.238 143.02 22.622 144.186 22.622C145.616 22.622 146.331 23.337 146.331 24.767C146.331 25.625 146.089 27.176 145.605 29.42C145.187 31.334 144.978 32.599 144.978 33.215C144.978 34.095 145.297 34.535 145.935 34.535C146.375 34.535 146.892 34.271 147.486 33.743C148.102 33.193 148.916 32.313 149.928 31.103C150.192 30.795 150.489 30.641 150.819 30.641C151.105 30.641 151.325 30.773 151.479 31.037C151.655 31.301 151.743 31.664 151.743 32.126C151.743 33.006 151.534 33.688 151.116 34.172C150.17 35.338 149.147 36.295 148.047 37.043C146.969 37.791 145.737 38.165 144.351 38.165C143.229 38.165 142.382 37.846 141.81 37.208C141.238 36.548 140.952 35.602 140.952 34.37C140.952 33.754 141.106 32.654 141.414 31.07C141.7 29.684 141.843 28.727 141.843 28.199C141.843 27.847 141.722 27.671 141.48 27.671C141.194 27.671 140.787 28.045 140.259 28.793C139.731 29.519 139.203 30.487 138.675 31.697C138.147 32.907 137.718 34.183 137.388 35.525C137.146 36.581 136.86 37.285 136.53 37.637C136.222 37.989 135.716 38.165 135.012 38.165C134.286 38.165 133.736 37.824 133.362 37.142C133.01 36.438 132.834 35.591 132.834 34.601C132.834 33.765 132.944 32.555 133.164 30.971C133.34 29.563 133.428 28.639 133.428 28.199C133.428 27.847 133.307 27.671 133.065 27.671C132.735 27.671 132.317 28.067 131.811 28.859C131.305 29.651 130.81 30.663 130.326 31.895C129.864 33.127 129.49 34.337 129.204 35.525C128.962 36.559 128.676 37.263 128.346 37.637C128.038 37.989 127.543 38.165 126.861 38.165ZM153.133 38.165C151.769 38.165 150.68 37.67 149.866 36.68C149.052 35.69 148.645 34.392 148.645 32.786C148.645 31.026 149.052 29.365 149.866 27.803C150.68 26.219 151.758 24.954 153.1 24.008C154.464 23.04 155.905 22.556 157.423 22.556C157.907 22.556 158.226 22.655 158.38 22.853C158.556 23.029 158.699 23.359 158.809 23.843C159.271 23.755 159.755 23.711 160.261 23.711C161.339 23.711 161.878 24.096 161.878 24.866C161.878 25.328 161.713 26.428 161.383 28.166C160.877 30.696 160.624 32.456 160.624 33.446C160.624 33.776 160.701 34.04 160.855 34.238C161.031 34.436 161.251 34.535 161.515 34.535C161.933 34.535 162.439 34.271 163.033 33.743C163.627 33.193 164.43 32.313 165.442 31.103C165.706 30.795 166.003 30.641 166.333 30.641C166.619 30.641 166.839 30.773 166.993 31.037C167.169 31.301 167.257 31.664 167.257 32.126C167.257 33.006 167.048 33.688 166.63 34.172C165.728 35.294 164.771 36.24 163.759 37.01C162.747 37.78 161.768 38.165 160.822 38.165C160.096 38.165 159.425 37.923 158.809 37.439C158.215 36.933 157.764 36.251 157.456 35.393C156.312 37.241 154.871 38.165 153.133 38.165ZM154.321 34.832C154.805 34.832 155.267 34.546 155.707 33.974C156.147 33.402 156.466 32.643 156.664 31.697L157.885 25.625C156.961 25.647 156.103 25.999 155.311 26.681C154.541 27.341 153.925 28.221 153.463 29.321C153.001 30.421 152.77 31.587 152.77 32.819C152.77 33.501 152.902 34.007 153.166 34.337C153.452 34.667 153.837 34.832 154.321 34.832ZM179.293 30.641C179.579 30.641 179.799 30.773 179.953 31.037C180.129 31.301 180.217 31.664 180.217 32.126C180.217 33.006 180.008 33.688 179.59 34.172C178.644 35.338 177.61 36.295 176.488 37.043C175.366 37.791 174.079 38.165 172.627 38.165C168.139 38.165 165.895 35.008 165.895 28.694C165.895 27.726 165.928 26.747 165.994 25.757H164.707C164.047 25.757 163.596 25.636 163.354 25.394C163.134 25.152 163.024 24.767 163.024 24.239C163.024 23.007 163.519 22.391 164.509 22.391H166.39C166.764 19.971 167.336 17.76 168.106 15.758C168.876 13.756 169.8 12.161 170.878 10.973C171.978 9.785 173.155 9.191 174.409 9.191C175.333 9.191 176.059 9.598 176.587 10.412C177.115 11.226 177.379 12.249 177.379 13.481C177.379 16.891 175.949 19.861 173.089 22.391H176.785C177.137 22.391 177.39 22.468 177.544 22.622C177.698 22.776 177.775 23.062 177.775 23.48C177.775 24.998 176.532 25.757 174.046 25.757H170.02C169.976 26.857 169.954 27.715 169.954 28.331C169.954 30.619 170.218 32.225 170.746 33.149C171.296 34.073 172.154 34.535 173.32 34.535C174.266 34.535 175.102 34.249 175.828 33.677C176.554 33.105 177.412 32.247 178.402 31.103C178.666 30.795 178.963 30.641 179.293 30.641ZM173.518 12.359C173.188 12.359 172.814 12.777 172.396 13.613C172 14.427 171.615 15.571 171.241 17.045C170.889 18.497 170.592 20.114 170.35 21.896C171.648 20.774 172.616 19.52 173.254 18.134C173.914 16.726 174.244 15.45 174.244 14.306C174.244 13.008 174.002 12.359 173.518 12.359ZM183.107 38.165C181.809 38.165 180.698 37.846 179.774 37.208C178.872 36.548 178.19 35.69 177.728 34.634C177.266 33.578 177.035 32.445 177.035 31.235C177.035 29.563 177.343 28.078 177.959 26.78C178.597 25.46 179.455 24.437 180.533 23.711C181.611 22.963 182.821 22.589 184.163 22.589C185.461 22.589 186.572 22.919 187.496 23.579C188.42 24.217 189.113 25.064 189.575 26.12C190.037 27.176 190.268 28.309 190.268 29.519C190.268 31.191 189.949 32.687 189.311 34.007C188.673 35.305 187.804 36.328 186.704 37.076C185.626 37.802 184.427 38.165 183.107 38.165ZM183.47 34.601C184.218 34.601 184.845 34.194 185.351 33.38C185.879 32.566 186.143 31.378 186.143 29.816C186.143 28.606 185.923 27.693 185.483 27.077C185.043 26.461 184.515 26.153 183.899 26.153C183.107 26.153 182.447 26.56 181.919 27.374C181.413 28.166 181.16 29.354 181.16 30.938C181.16 32.192 181.38 33.116 181.82 33.71C182.26 34.304 182.81 34.601 183.47 34.601ZM229.069 30.707C229.355 30.707 229.575 30.85 229.729 31.136C229.905 31.4 229.993 31.741 229.993 32.159C229.993 32.665 229.916 33.061 229.762 33.347C229.608 33.633 229.366 33.886 229.036 34.106C227.738 34.964 225.67 36.372 222.832 38.33C221.974 42.884 220.863 46.47 219.499 49.088C218.135 51.706 216.408 53.015 214.318 53.015C213.196 53.015 212.283 52.663 211.579 51.959C210.875 51.277 210.523 50.375 210.523 49.253C210.523 48.219 210.754 47.174 211.216 46.118C211.678 45.062 212.536 43.841 213.79 42.455C215.066 41.069 216.859 39.485 219.169 37.703L219.268 37.076C217.53 37.802 215.825 38.165 214.153 38.165C211.689 38.165 209.522 37.692 207.652 36.746C205.782 35.778 204.33 34.414 203.296 32.654C202.262 30.894 201.745 28.848 201.745 26.516C201.745 23.26 202.361 20.389 203.593 17.903C204.825 15.395 206.519 13.459 208.675 12.095C210.853 10.709 213.284 10.016 215.968 10.016C218.542 10.016 220.467 10.621 221.743 11.831C223.041 13.019 223.69 14.603 223.69 16.583C223.69 17.881 223.448 18.926 222.964 19.718C222.502 20.488 221.831 20.873 220.951 20.873C220.357 20.873 219.873 20.73 219.499 20.444C219.147 20.158 218.971 19.762 218.971 19.256C218.971 19.036 219.015 18.662 219.103 18.134C219.235 17.518 219.301 17.034 219.301 16.682C219.301 15.758 219.015 15.043 218.443 14.537C217.893 14.031 216.958 13.778 215.638 13.778C214.032 13.778 212.536 14.24 211.15 15.164C209.786 16.088 208.686 17.474 207.85 19.322C207.014 21.148 206.596 23.348 206.596 25.922C206.596 28.562 207.311 30.608 208.741 32.06C210.193 33.49 212.283 34.205 215.011 34.205C216.529 34.205 218.113 33.864 219.763 33.182L220.225 29.156H216.859C216.243 29.156 215.77 29.013 215.44 28.727C215.11 28.419 214.945 27.924 214.945 27.242C214.945 26.626 215.11 26.142 215.44 25.79C215.77 25.438 216.21 25.262 216.76 25.262H222.931C223.415 25.262 223.811 25.427 224.119 25.757C224.449 26.065 224.581 26.516 224.515 27.11C224.449 27.814 224.229 29.409 223.855 31.895L223.492 34.403C225.252 33.083 226.858 31.939 228.31 30.971C228.596 30.795 228.849 30.707 229.069 30.707ZM214.681 49.814C215.253 49.814 215.88 49.165 216.562 47.867C217.244 46.569 217.882 44.479 218.476 41.597C216.804 43.027 215.594 44.314 214.846 45.458C214.12 46.624 213.757 47.647 213.757 48.527C213.757 49.385 214.065 49.814 214.681 49.814ZM229.953 38.165C229.117 38.165 228.523 37.725 228.171 36.845C227.841 35.965 227.676 34.557 227.676 32.621C227.676 29.761 228.083 27.044 228.897 24.47C229.095 23.832 229.414 23.37 229.854 23.084C230.316 22.776 230.954 22.622 231.768 22.622C232.208 22.622 232.516 22.677 232.692 22.787C232.868 22.897 232.956 23.106 232.956 23.414C232.956 23.766 232.791 24.558 232.461 25.79C232.241 26.67 232.065 27.44 231.933 28.1C231.801 28.76 231.691 29.574 231.603 30.542C232.329 28.65 233.143 27.11 234.045 25.922C234.947 24.734 235.827 23.887 236.685 23.381C237.565 22.875 238.368 22.622 239.094 22.622C240.524 22.622 241.239 23.337 241.239 24.767C241.239 25.053 241.14 25.746 240.942 26.846C240.766 27.726 240.678 28.276 240.678 28.496C240.678 29.266 240.953 29.651 241.503 29.651C242.119 29.651 242.911 29.167 243.879 28.199C244.165 27.913 244.462 27.77 244.77 27.77C245.056 27.77 245.276 27.902 245.43 28.166C245.606 28.408 245.694 28.738 245.694 29.156C245.694 29.97 245.474 30.608 245.034 31.07C244.418 31.708 243.692 32.258 242.856 32.72C242.042 33.16 241.173 33.38 240.249 33.38C239.083 33.38 238.192 33.083 237.576 32.489C236.982 31.895 236.685 31.092 236.685 30.08C236.685 29.75 236.718 29.42 236.784 29.09C236.828 28.65 236.85 28.353 236.85 28.199C236.85 27.847 236.729 27.671 236.487 27.671C236.157 27.671 235.717 28.045 235.167 28.793C234.639 29.519 234.111 30.487 233.583 31.697C233.055 32.907 232.626 34.183 232.296 35.525C232.054 36.559 231.768 37.263 231.438 37.637C231.13 37.989 230.635 38.165 229.953 38.165ZM246.687 38.165C245.323 38.165 244.234 37.67 243.42 36.68C242.606 35.69 242.199 34.392 242.199 32.786C242.199 31.026 242.606 29.365 243.42 27.803C244.234 26.219 245.312 24.954 246.654 24.008C248.018 23.04 249.459 22.556 250.977 22.556C251.461 22.556 251.78 22.655 251.934 22.853C252.11 23.029 252.253 23.359 252.363 23.843C252.825 23.755 253.309 23.711 253.815 23.711C254.893 23.711 255.432 24.096 255.432 24.866C255.432 25.328 255.267 26.428 254.937 28.166C254.431 30.696 254.178 32.456 254.178 33.446C254.178 33.776 254.255 34.04 254.409 34.238C254.585 34.436 254.805 34.535 255.069 34.535C255.487 34.535 255.993 34.271 256.587 33.743C257.181 33.193 257.984 32.313 258.996 31.103C259.26 30.795 259.557 30.641 259.887 30.641C260.173 30.641 260.393 30.773 260.547 31.037C260.723 31.301 260.811 31.664 260.811 32.126C260.811 33.006 260.602 33.688 260.184 34.172C259.282 35.294 258.325 36.24 257.313 37.01C256.301 37.78 255.322 38.165 254.376 38.165C253.65 38.165 252.979 37.923 252.363 37.439C251.769 36.933 251.318 36.251 251.01 35.393C249.866 37.241 248.425 38.165 246.687 38.165ZM247.875 34.832C248.359 34.832 248.821 34.546 249.261 33.974C249.701 33.402 250.02 32.643 250.218 31.697L251.439 25.625C250.515 25.647 249.657 25.999 248.865 26.681C248.095 27.341 247.479 28.221 247.017 29.321C246.555 30.421 246.324 31.587 246.324 32.819C246.324 33.501 246.456 34.007 246.72 34.337C247.006 34.667 247.391 34.832 247.875 34.832ZM260.472 38.165C259.636 38.165 259.042 37.725 258.69 36.845C258.36 35.965 258.195 34.557 258.195 32.621C258.195 29.761 258.602 27.044 259.416 24.47C259.614 23.832 259.933 23.37 260.373 23.084C260.835 22.776 261.473 22.622 262.287 22.622C262.727 22.622 263.035 22.677 263.211 22.787C263.387 22.897 263.475 23.106 263.475 23.414C263.475 23.766 263.31 24.558 262.98 25.79C262.76 26.67 262.584 27.44 262.452 28.1C262.32 28.76 262.21 29.574 262.122 30.542C262.848 28.65 263.662 27.11 264.564 25.922C265.466 24.734 266.346 23.887 267.204 23.381C268.084 22.875 268.887 22.622 269.613 22.622C271.043 22.622 271.758 23.337 271.758 24.767C271.758 25.625 271.516 27.176 271.032 29.42C270.614 31.334 270.405 32.599 270.405 33.215C270.405 34.095 270.724 34.535 271.362 34.535C271.802 34.535 272.319 34.271 272.913 33.743C273.529 33.193 274.343 32.313 275.355 31.103C275.619 30.795 275.916 30.641 276.246 30.641C276.532 30.641 276.752 30.773 276.906 31.037C277.082 31.301 277.17 31.664 277.17 32.126C277.17 33.006 276.961 33.688 276.543 34.172C275.597 35.338 274.574 36.295 273.474 37.043C272.396 37.791 271.164 38.165 269.778 38.165C268.656 38.165 267.809 37.846 267.237 37.208C266.665 36.548 266.379 35.602 266.379 34.37C266.379 33.754 266.533 32.654 266.841 31.07C267.127 29.684 267.27 28.727 267.27 28.199C267.27 27.847 267.149 27.671 266.907 27.671C266.621 27.671 266.214 28.045 265.686 28.793C265.18 29.519 264.652 30.487 264.102 31.697C263.574 32.907 263.145 34.183 262.815 35.525C262.573 36.559 262.287 37.263 261.957 37.637C261.649 37.989 261.154 38.165 260.472 38.165ZM286.512 30.641C286.754 32.445 287.106 34.227 287.568 35.987C287.656 36.273 287.7 36.57 287.7 36.878C287.7 37.868 287.095 38.363 285.885 38.363C285.203 38.363 284.675 38.176 284.301 37.802C283.949 37.428 283.619 36.724 283.311 35.69L283.278 35.558C282.442 36.592 281.683 37.285 281.001 37.637C280.341 37.989 279.571 38.165 278.691 38.165C277.349 38.165 276.238 37.67 275.358 36.68C274.5 35.668 274.071 34.359 274.071 32.753C274.071 30.993 274.445 29.365 275.193 27.869C275.941 26.373 276.964 25.152 278.262 24.206C279.56 23.238 281.012 22.655 282.618 22.457C283.036 18.299 283.828 14.68 284.994 11.6C286.182 8.52 287.755 6.98 289.713 6.98C290.659 6.98 291.44 7.409 292.056 8.267C292.694 9.125 293.013 10.423 293.013 12.161C293.013 14.581 292.419 17.408 291.231 20.642C290.043 23.876 288.47 27.209 286.512 30.641ZM289.35 10.214C288.712 10.214 288.107 11.842 287.535 15.098C286.985 18.354 286.611 21.896 286.413 25.724C288.855 20.444 290.076 16.154 290.076 12.854C290.076 12.018 289.999 11.369 289.845 10.907C289.713 10.445 289.548 10.214 289.35 10.214ZM279.846 34.832C280.286 34.832 280.704 34.667 281.1 34.337C281.518 34.007 282.046 33.369 282.684 32.423C282.464 30.817 282.354 29.156 282.354 27.44C282.354 26.758 282.365 26.23 282.387 25.856C281.177 26.208 280.176 27.011 279.384 28.265C278.592 29.519 278.196 30.905 278.196 32.423C278.196 34.029 278.746 34.832 279.846 34.832ZM102.949 78.165C100.331 78.165 98.054 77.692 96.118 76.746C94.182 75.778 92.697 74.414 91.663 72.654C90.629 70.894 90.112 68.848 90.112 66.516C90.112 63.282 90.717 60.411 91.927 57.903C93.159 55.395 94.82 53.459 96.91 52.095C99 50.709 101.321 50.016 103.873 50.016C106.249 50.016 108.053 50.632 109.285 51.864C110.517 53.074 111.133 54.68 111.133 56.682C111.133 58.024 110.891 59.102 110.407 59.916C109.945 60.73 109.274 61.137 108.394 61.137C107.778 61.137 107.294 60.994 106.942 60.708C106.59 60.422 106.414 60.004 106.414 59.454C106.414 59.256 106.458 58.893 106.546 58.365C106.678 57.705 106.744 57.177 106.744 56.781C106.744 54.779 105.677 53.778 103.543 53.778C102.091 53.778 100.705 54.251 99.385 55.197C98.065 56.143 96.998 57.54 96.184 59.388C95.37 61.214 94.963 63.392 94.963 65.922C94.963 68.562 95.7 70.608 97.174 72.06C98.648 73.49 100.826 74.205 103.708 74.205C105.138 74.205 106.579 74.029 108.031 73.677C109.505 73.303 111.133 72.742 112.915 71.994C113.245 71.862 113.52 71.796 113.74 71.796C114.092 71.796 114.356 71.928 114.532 72.192C114.708 72.456 114.796 72.797 114.796 73.215C114.796 74.557 114.07 75.547 112.618 76.185C111.056 76.867 109.428 77.373 107.734 77.703C106.062 78.011 104.467 78.165 102.949 78.165ZM130.522 70.641C130.808 70.641 131.028 70.773 131.182 71.037C131.358 71.301 131.446 71.664 131.446 72.126C131.446 73.006 131.237 73.688 130.819 74.172C129.807 75.338 128.762 76.295 127.684 77.043C126.628 77.791 125.418 78.165 124.054 78.165C122.932 78.165 122.085 77.846 121.513 77.208C120.941 76.548 120.655 75.602 120.655 74.37C120.655 73.754 120.809 72.654 121.117 71.07C121.403 69.684 121.546 68.727 121.546 68.199C121.546 67.847 121.425 67.671 121.183 67.671C120.897 67.671 120.49 68.045 119.962 68.793C119.434 69.519 118.906 70.487 118.378 71.697C117.85 72.907 117.421 74.183 117.091 75.525C116.673 77.285 115.639 78.165 113.989 78.165C113.329 78.165 112.889 77.934 112.669 77.472C112.471 76.988 112.372 76.13 112.372 74.898C112.372 74.194 112.383 73.633 112.405 73.215L112.438 70.575C112.438 67.187 112.779 63.656 113.461 59.982C114.165 56.308 115.188 53.228 116.53 50.742C117.894 48.234 119.522 46.98 121.414 46.98C122.426 46.98 123.24 47.42 123.856 48.3C124.494 49.158 124.813 50.28 124.813 51.666C124.813 53.888 124.164 56.198 122.866 58.596C121.568 60.972 119.456 63.755 116.53 66.945C116.464 68.089 116.431 69.266 116.431 70.476C117.157 68.606 117.96 67.088 118.84 65.922C119.742 64.734 120.622 63.887 121.48 63.381C122.36 62.875 123.163 62.622 123.889 62.622C125.319 62.622 126.034 63.337 126.034 64.767C126.034 65.625 125.792 67.176 125.308 69.42C124.89 71.334 124.681 72.599 124.681 73.215C124.681 74.095 125 74.535 125.638 74.535C126.078 74.535 126.595 74.271 127.189 73.743C127.805 73.193 128.619 72.313 129.631 71.103C129.895 70.795 130.192 70.641 130.522 70.641ZM120.721 50.247C120.325 50.247 119.885 50.819 119.401 51.963C118.917 53.085 118.444 54.614 117.982 56.55C117.542 58.464 117.179 60.554 116.893 62.82C118.257 61.214 119.379 59.465 120.259 57.573C121.161 55.681 121.612 53.965 121.612 52.425C121.612 51.721 121.535 51.182 121.381 50.808C121.227 50.434 121.007 50.247 120.721 50.247ZM132.831 78.165C131.467 78.165 130.378 77.67 129.564 76.68C128.75 75.69 128.343 74.392 128.343 72.786C128.343 71.026 128.75 69.365 129.564 67.803C130.378 66.219 131.456 64.954 132.798 64.008C134.162 63.04 135.603 62.556 137.121 62.556C137.605 62.556 137.924 62.655 138.078 62.853C138.254 63.029 138.397 63.359 138.507 63.843C138.969 63.755 139.453 63.711 139.959 63.711C141.037 63.711 141.576 64.096 141.576 64.866C141.576 65.328 141.411 66.428 141.081 68.166C140.575 70.696 140.322 72.456 140.322 73.446C140.322 73.776 140.399 74.04 140.553 74.238C140.729 74.436 140.949 74.535 141.213 74.535C141.631 74.535 142.137 74.271 142.731 73.743C143.325 73.193 144.128 72.313 145.14 71.103C145.404 70.795 145.701 70.641 146.031 70.641C146.317 70.641 146.537 70.773 146.691 71.037C146.867 71.301 146.955 71.664 146.955 72.126C146.955 73.006 146.746 73.688 146.328 74.172C145.426 75.294 144.469 76.24 143.457 77.01C142.445 77.78 141.466 78.165 140.52 78.165C139.794 78.165 139.123 77.923 138.507 77.439C137.913 76.933 137.462 76.251 137.154 75.393C136.01 77.241 134.569 78.165 132.831 78.165ZM134.019 74.832C134.503 74.832 134.965 74.546 135.405 73.974C135.845 73.402 136.164 72.643 136.362 71.697L137.583 65.625C136.659 65.647 135.801 65.999 135.009 66.681C134.239 67.341 133.623 68.221 133.161 69.321C132.699 70.421 132.468 71.587 132.468 72.819C132.468 73.501 132.6 74.007 132.864 74.337C133.15 74.667 133.535 74.832 134.019 74.832ZM156.779 70.641C157.065 70.641 157.285 70.773 157.439 71.037C157.615 71.301 157.703 71.664 157.703 72.126C157.703 73.006 157.494 73.688 157.076 74.172C156.13 75.338 155.096 76.295 153.974 77.043C152.874 77.791 151.62 78.165 150.212 78.165C148.276 78.165 146.835 77.285 145.889 75.525C144.965 73.765 144.503 71.488 144.503 68.694C144.503 66.01 144.844 62.952 145.526 59.52C146.23 56.088 147.253 53.14 148.595 50.676C149.959 48.212 151.576 46.98 153.446 46.98C154.502 46.98 155.327 47.475 155.921 48.465C156.537 49.433 156.845 50.83 156.845 52.656C156.845 55.274 156.119 58.31 154.667 61.764C153.215 65.218 151.246 68.639 148.76 72.027C148.914 72.929 149.167 73.578 149.519 73.974C149.871 74.348 150.333 74.535 150.905 74.535C151.807 74.535 152.599 74.282 153.281 73.776C153.963 73.248 154.832 72.357 155.888 71.103C156.152 70.795 156.449 70.641 156.779 70.641ZM152.72 50.247C152.214 50.247 151.642 51.16 151.004 52.986C150.366 54.812 149.805 57.078 149.321 59.784C148.837 62.49 148.573 65.086 148.529 67.572C150.091 64.998 151.334 62.424 152.258 59.85C153.182 57.254 153.644 54.889 153.644 52.755C153.644 51.083 153.336 50.247 152.72 50.247ZM167.543 70.641C167.829 70.641 168.049 70.773 168.203 71.037C168.379 71.301 168.467 71.664 168.467 72.126C168.467 73.006 168.258 73.688 167.84 74.172C166.894 75.338 165.86 76.295 164.738 77.043C163.638 77.791 162.384 78.165 160.976 78.165C159.04 78.165 157.599 77.285 156.653 75.525C155.729 73.765 155.267 71.488 155.267 68.694C155.267 66.01 155.608 62.952 156.29 59.52C156.994 56.088 158.017 53.14 159.359 50.676C160.723 48.212 162.34 46.98 164.21 46.98C165.266 46.98 166.091 47.475 166.685 48.465C167.301 49.433 167.609 50.83 167.609 52.656C167.609 55.274 166.883 58.31 165.431 61.764C163.979 65.218 162.01 68.639 159.524 72.027C159.678 72.929 159.931 73.578 160.283 73.974C160.635 74.348 161.097 74.535 161.669 74.535C162.571 74.535 163.363 74.282 164.045 73.776C164.727 73.248 165.596 72.357 166.652 71.103C166.916 70.795 167.213 70.641 167.543 70.641ZM163.484 50.247C162.978 50.247 162.406 51.16 161.768 52.986C161.13 54.812 160.569 57.078 160.085 59.784C159.601 62.49 159.337 65.086 159.293 67.572C160.855 64.998 162.098 62.424 163.022 59.85C163.946 57.254 164.408 54.889 164.408 52.755C164.408 51.083 164.1 50.247 163.484 50.247ZM180.518 70.641C180.804 70.641 181.024 70.773 181.178 71.037C181.354 71.301 181.442 71.664 181.442 72.126C181.442 73.006 181.233 73.688 180.815 74.172C180.001 75.162 178.846 76.075 177.35 76.911C175.876 77.747 174.292 78.165 172.598 78.165C170.288 78.165 168.495 77.538 167.219 76.284C165.943 75.03 165.305 73.314 165.305 71.136C165.305 69.618 165.624 68.21 166.262 66.912C166.9 65.592 167.78 64.547 168.902 63.777C170.046 63.007 171.333 62.622 172.763 62.622C174.039 62.622 175.062 63.007 175.832 63.777C176.602 64.525 176.987 65.548 176.987 66.846C176.987 68.364 176.437 69.673 175.337 70.773C174.259 71.851 172.422 72.709 169.826 73.347C170.376 74.359 171.421 74.865 172.961 74.865C173.951 74.865 175.073 74.524 176.327 73.842C177.603 73.138 178.703 72.225 179.627 71.103C179.891 70.795 180.188 70.641 180.518 70.641ZM172.202 65.856C171.388 65.856 170.695 66.329 170.123 67.275C169.573 68.221 169.298 69.365 169.298 70.707V70.773C170.596 70.465 171.619 70.003 172.367 69.387C173.115 68.771 173.489 68.056 173.489 67.242C173.489 66.824 173.368 66.494 173.126 66.252C172.906 65.988 172.598 65.856 172.202 65.856ZM181.098 78.165C180.262 78.165 179.668 77.725 179.316 76.845C178.986 75.965 178.821 74.557 178.821 72.621C178.821 69.761 179.228 67.044 180.042 64.47C180.24 63.832 180.559 63.37 180.999 63.084C181.461 62.776 182.099 62.622 182.913 62.622C183.353 62.622 183.661 62.677 183.837 62.787C184.013 62.897 184.101 63.106 184.101 63.414C184.101 63.766 183.936 64.558 183.606 65.79C183.386 66.67 183.21 67.44 183.078 68.1C182.946 68.76 182.836 69.574 182.748 70.542C183.474 68.65 184.288 67.11 185.19 65.922C186.092 64.734 186.972 63.887 187.83 63.381C188.71 62.875 189.513 62.622 190.239 62.622C191.669 62.622 192.384 63.337 192.384 64.767C192.384 65.625 192.142 67.176 191.658 69.42C191.24 71.334 191.031 72.599 191.031 73.215C191.031 74.095 191.35 74.535 191.988 74.535C192.428 74.535 192.945 74.271 193.539 73.743C194.155 73.193 194.969 72.313 195.981 71.103C196.245 70.795 196.542 70.641 196.872 70.641C197.158 70.641 197.378 70.773 197.532 71.037C197.708 71.301 197.796 71.664 197.796 72.126C197.796 73.006 197.587 73.688 197.169 74.172C196.223 75.338 195.2 76.295 194.1 77.043C193.022 77.791 191.79 78.165 190.404 78.165C189.282 78.165 188.435 77.846 187.863 77.208C187.291 76.548 187.005 75.602 187.005 74.37C187.005 73.754 187.159 72.654 187.467 71.07C187.753 69.684 187.896 68.727 187.896 68.199C187.896 67.847 187.775 67.671 187.533 67.671C187.247 67.671 186.84 68.045 186.312 68.793C185.806 69.519 185.278 70.487 184.728 71.697C184.2 72.907 183.771 74.183 183.441 75.525C183.199 76.559 182.913 77.263 182.583 77.637C182.275 77.989 181.78 78.165 181.098 78.165ZM212.022 70.707C212.308 70.707 212.528 70.85 212.682 71.136C212.858 71.4 212.946 71.741 212.946 72.159C212.946 72.665 212.869 73.061 212.715 73.347C212.561 73.633 212.319 73.886 211.989 74.106C210.097 75.382 208.711 76.328 207.831 76.944L205.719 78.363C204.883 82.917 203.783 86.492 202.419 89.088C201.077 91.706 199.361 93.015 197.271 93.015C196.149 93.015 195.236 92.663 194.532 91.959C193.828 91.277 193.476 90.375 193.476 89.253C193.476 87.691 194.092 86.008 195.324 84.204C196.556 82.422 198.866 80.222 202.254 77.604L202.452 76.317C202.078 76.911 201.583 77.373 200.967 77.703C200.373 78.011 199.779 78.165 199.185 78.165C197.821 78.165 196.732 77.67 195.918 76.68C195.104 75.69 194.697 74.392 194.697 72.786C194.697 71.026 195.104 69.365 195.918 67.803C196.732 66.219 197.81 64.954 199.152 64.008C200.516 63.04 201.957 62.556 203.475 62.556C203.959 62.556 204.278 62.655 204.432 62.853C204.608 63.029 204.751 63.359 204.861 63.843C205.279 63.755 205.763 63.711 206.313 63.711C206.863 63.711 207.248 63.799 207.468 63.975C207.71 64.129 207.831 64.448 207.831 64.932C207.831 65.196 207.82 65.405 207.798 65.559C207.71 66.241 207.435 67.968 206.973 70.74C206.885 71.268 206.786 71.851 206.676 72.489C206.588 73.105 206.489 73.765 206.379 74.469C208.073 73.149 209.701 71.983 211.263 70.971C211.549 70.795 211.802 70.707 212.022 70.707ZM200.373 74.832C200.879 74.832 201.363 74.524 201.825 73.908C202.287 73.292 202.617 72.412 202.815 71.268L203.871 65.625C202.969 65.647 202.133 65.999 201.363 66.681C200.593 67.341 199.977 68.221 199.515 69.321C199.053 70.421 198.822 71.587 198.822 72.819C198.822 73.501 198.954 74.007 199.218 74.337C199.504 74.667 199.889 74.832 200.373 74.832ZM197.634 89.814C198.184 89.814 198.8 89.154 199.482 87.834C200.186 86.514 200.857 84.413 201.495 81.531C199.801 82.983 198.58 84.292 197.832 85.458C197.084 86.624 196.71 87.647 196.71 88.527C196.71 88.901 196.776 89.209 196.908 89.451C197.062 89.693 197.304 89.814 197.634 89.814ZM222.731 71.631C223.017 71.631 223.237 71.763 223.391 72.027C223.567 72.291 223.655 72.654 223.655 73.116C223.655 73.908 223.468 74.59 223.094 75.162C222.478 76.108 221.664 76.845 220.652 77.373C219.662 77.901 218.474 78.165 217.088 78.165C214.976 78.165 213.337 77.538 212.171 76.284C211.005 75.008 210.422 73.292 210.422 71.136C210.422 69.618 210.741 68.21 211.379 66.912C212.017 65.592 212.897 64.547 214.019 63.777C215.163 63.007 216.45 62.622 217.88 62.622C219.156 62.622 220.179 63.007 220.949 63.777C221.719 64.525 222.104 65.548 222.104 66.846C222.104 68.364 221.554 69.673 220.454 70.773C219.376 71.851 217.528 72.709 214.91 73.347C215.438 74.359 216.329 74.865 217.583 74.865C218.485 74.865 219.222 74.656 219.794 74.238C220.388 73.82 221.07 73.116 221.84 72.126C222.104 71.796 222.401 71.631 222.731 71.631ZM217.319 65.856C216.505 65.856 215.812 66.329 215.24 67.275C214.69 68.221 214.415 69.365 214.415 70.707V70.773C215.713 70.465 216.736 70.003 217.484 69.387C218.232 68.771 218.606 68.056 218.606 67.242C218.606 66.824 218.485 66.494 218.243 66.252C218.023 65.988 217.715 65.856 217.319 65.856Z" fill="white"/>
</svg>
