<svg width="1206" height="443" viewBox="0 0 606 243" fill="none" xmlns="http://www.w3.org/2000/svg">
<rect width="1206" height="443" rx="16" fill="white"/>
<path d="M247.899 127H208.047V119.224L238.908 76.132H209.343V69.004H247.575V76.78L216.714 119.872H247.899V127ZM275.981 128.296C270.149 128.296 265.343 126.298 261.563 122.302C257.783 118.306 255.893 113.257 255.893 107.155C255.893 101.107 257.729 96.085 261.401 92.089C265.073 88.039 269.771 86.014 275.495 86.014C281.381 86.014 286.052 87.931 289.508 91.765C293.018 95.545 294.773 100.864 294.773 107.722L294.692 108.532H263.507C263.615 112.42 264.911 115.552 267.395 117.928C269.879 120.304 272.849 121.492 276.305 121.492C281.057 121.492 284.783 119.116 287.483 114.364L294.125 117.604C292.343 120.952 289.859 123.571 286.673 125.461C283.541 127.351 279.977 128.296 275.981 128.296ZM264.074 102.376H286.835C286.619 99.622 285.485 97.354 283.433 95.572C281.435 93.736 278.735 92.818 275.333 92.818C272.525 92.818 270.095 93.682 268.043 95.41C266.045 97.138 264.722 99.46 264.074 102.376ZM304.827 87.31H311.955V92.818H312.279C313.413 90.874 315.141 89.254 317.463 87.958C319.839 86.662 322.296 86.014 324.834 86.014C329.694 86.014 333.42 87.418 336.012 90.226C338.658 92.98 339.981 96.922 339.981 102.052V127H332.529V102.538C332.367 96.058 329.1 92.818 322.728 92.818C319.758 92.818 317.274 94.033 315.276 96.463C313.278 98.839 312.279 101.701 312.279 105.049V127H304.827V87.31ZM370.577 76.132V127H363.125V76.132H346.925V69.004H386.777V76.132H370.577ZM407.834 128.296C402.002 128.296 397.196 126.298 393.416 122.302C389.636 118.306 387.746 113.257 387.746 107.155C387.746 101.107 389.582 96.085 393.254 92.089C396.926 88.039 401.624 86.014 407.348 86.014C413.234 86.014 417.905 87.931 421.361 91.765C424.871 95.545 426.626 100.864 426.626 107.722L426.545 108.532H395.36C395.468 112.42 396.764 115.552 399.248 117.928C401.732 120.304 404.702 121.492 408.158 121.492C412.91 121.492 416.636 119.116 419.336 114.364L425.978 117.604C424.196 120.952 421.712 123.571 418.526 125.461C415.394 127.351 411.83 128.296 407.834 128.296ZM395.927 102.376H418.688C418.472 99.622 417.338 97.354 415.286 95.572C413.288 93.736 410.588 92.818 407.186 92.818C404.378 92.818 401.948 93.682 399.896 95.41C397.898 97.138 396.575 99.46 395.927 102.376ZM455.22 128.296C449.334 128.296 444.447 126.298 440.559 122.302C436.725 118.198 434.808 113.149 434.808 107.155C434.808 101.053 436.725 96.004 440.559 92.008C444.447 88.012 449.334 86.014 455.22 86.014C459.27 86.014 462.807 87.04 465.831 89.092C468.855 91.09 471.123 93.871 472.635 97.435L465.831 100.27C463.725 95.302 460.026 92.818 454.734 92.818C451.332 92.818 448.389 94.195 445.905 96.949C443.475 99.703 442.26 103.105 442.26 107.155C442.26 111.205 443.475 114.607 445.905 117.361C448.389 120.115 451.332 121.492 454.734 121.492C460.188 121.492 464.022 119.008 466.236 114.04L472.878 116.875C471.42 120.439 469.125 123.247 465.993 125.299C462.915 127.297 459.324 128.296 455.22 128.296ZM482.635 69.004H490.087V87.31L489.763 92.818H490.087C491.221 90.874 492.949 89.254 495.271 87.958C497.647 86.662 500.104 86.014 502.642 86.014C507.502 86.014 511.228 87.418 513.82 90.226C516.466 92.98 517.789 96.922 517.789 102.052V127H510.337V103.51C510.337 96.382 507.178 92.818 500.86 92.818C497.836 92.818 495.271 94.087 493.165 96.625C491.113 99.109 490.087 102.025 490.087 105.373V127H482.635V69.004Z" fill="black"/>
<line x1="205" y1="146" x2="558" y2="146" stroke="black" stroke-width="3"/>
<path d="M222.476 174.506C222.476 176.637 221.694 178.348 220.13 179.64C218.544 180.909 216.617 181.544 214.35 181.544C212.333 181.544 210.554 180.955 209.012 179.776C207.471 178.597 206.406 176.988 205.816 174.948L208.808 173.724C209.012 174.449 209.296 175.107 209.658 175.696C210.021 176.285 210.44 176.795 210.916 177.226C211.415 177.634 211.959 177.963 212.548 178.212C213.138 178.439 213.761 178.552 214.418 178.552C215.846 178.552 217.014 178.189 217.92 177.464C218.827 176.716 219.28 175.73 219.28 174.506C219.28 173.486 218.906 172.613 218.158 171.888C217.456 171.185 216.141 170.505 214.214 169.848C212.265 169.145 211.052 168.669 210.576 168.42C207.992 167.105 206.7 165.167 206.7 162.606C206.7 160.815 207.414 159.285 208.842 158.016C210.293 156.747 212.072 156.112 214.18 156.112C216.039 156.112 217.648 156.588 219.008 157.54C220.368 158.469 221.275 159.637 221.728 161.042L218.804 162.266C218.532 161.359 217.988 160.611 217.172 160.022C216.379 159.41 215.404 159.104 214.248 159.104C213.024 159.104 211.993 159.444 211.154 160.124C210.316 160.759 209.896 161.586 209.896 162.606C209.896 163.445 210.225 164.17 210.882 164.782C211.608 165.394 213.183 166.119 215.608 166.958C218.079 167.797 219.836 168.828 220.878 170.052C221.944 171.253 222.476 172.738 222.476 174.506ZM234.537 181.544C232.089 181.544 230.072 180.705 228.485 179.028C226.899 177.351 226.105 175.231 226.105 172.67C226.105 170.131 226.876 168.023 228.417 166.346C229.959 164.646 231.931 163.796 234.333 163.796C236.804 163.796 238.765 164.601 240.215 166.21C241.689 167.797 242.425 170.029 242.425 172.908L242.391 173.248H229.301C229.347 174.88 229.891 176.195 230.933 177.192C231.976 178.189 233.223 178.688 234.673 178.688C236.668 178.688 238.232 177.691 239.365 175.696L242.153 177.056C241.405 178.461 240.363 179.561 239.025 180.354C237.711 181.147 236.215 181.544 234.537 181.544ZM229.539 170.664H239.093C239.003 169.508 238.527 168.556 237.665 167.808C236.827 167.037 235.693 166.652 234.265 166.652C233.087 166.652 232.067 167.015 231.205 167.74C230.367 168.465 229.811 169.44 229.539 170.664ZM249.774 181H246.646V164.34H249.638V167.06H249.774C250.091 166.176 250.737 165.428 251.712 164.816C252.709 164.181 253.684 163.864 254.636 163.864C255.543 163.864 256.313 164 256.948 164.272L255.996 167.298C255.611 167.139 254.999 167.06 254.16 167.06C252.981 167.06 251.95 167.536 251.066 168.488C250.205 169.44 249.774 170.551 249.774 171.82V181ZM268.782 181H265.654L258.922 164.34H262.322L267.218 177.26H267.286L272.25 164.34H275.582L268.782 181ZM283.029 158.594C283.029 159.206 282.814 159.727 282.383 160.158C281.952 160.589 281.431 160.804 280.819 160.804C280.207 160.804 279.686 160.589 279.255 160.158C278.824 159.727 278.609 159.206 278.609 158.594C278.609 157.982 278.824 157.461 279.255 157.03C279.686 156.599 280.207 156.384 280.819 156.384C281.431 156.384 281.952 156.599 282.383 157.03C282.814 157.461 283.029 157.982 283.029 158.594ZM282.383 164.34V181H279.255V164.34H282.383ZM287.814 164.34H290.806V166.652H290.942C291.418 165.836 292.143 165.156 293.118 164.612C294.115 164.068 295.147 163.796 296.212 163.796C298.252 163.796 299.816 164.385 300.904 165.564C302.015 166.72 302.57 168.375 302.57 170.528V181H299.442V170.732C299.374 168.012 298.003 166.652 295.328 166.652C294.081 166.652 293.039 167.162 292.2 168.182C291.361 169.179 290.942 170.381 290.942 171.786V181H287.814V164.34ZM314.916 178.688C316.457 178.688 317.715 178.133 318.69 177.022C319.71 175.911 320.22 174.461 320.22 172.67C320.22 170.925 319.71 169.485 318.69 168.352C317.692 167.219 316.434 166.652 314.916 166.652C313.42 166.652 312.162 167.219 311.142 168.352C310.122 169.485 309.612 170.925 309.612 172.67C309.612 174.438 310.122 175.877 311.142 176.988C312.162 178.121 313.42 178.688 314.916 178.688ZM314.814 188.888C313.884 188.888 313.012 188.763 312.196 188.514C311.38 188.287 310.632 187.959 309.952 187.528C309.294 187.097 308.728 186.587 308.252 185.998C307.776 185.409 307.413 184.751 307.164 184.026L310.122 182.802C310.462 183.777 311.051 184.559 311.89 185.148C312.728 185.737 313.703 186.032 314.814 186.032C316.514 186.032 317.84 185.522 318.792 184.502C319.744 183.482 320.22 182.077 320.22 180.286V178.688H320.084C319.494 179.572 318.69 180.275 317.67 180.796C316.672 181.295 315.584 181.544 314.406 181.544C312.23 181.544 310.36 180.694 308.796 178.994C307.254 177.249 306.484 175.141 306.484 172.67C306.484 170.199 307.254 168.103 308.796 166.38C310.36 164.657 312.23 163.796 314.406 163.796C315.584 163.796 316.672 164.057 317.67 164.578C318.69 165.077 319.494 165.768 320.084 166.652H320.22V164.34H323.212V180.286C323.212 182.961 322.452 185.057 320.934 186.576C319.392 188.117 317.352 188.888 314.814 188.888ZM340.888 181H337.76V156.656H340.888V167.094H353.06V156.656H356.188V181H353.06V170.018H340.888V181ZM376.173 181H373.181V178.688H373.045C372.569 179.504 371.832 180.184 370.835 180.728C369.86 181.272 368.84 181.544 367.775 181.544C365.735 181.544 364.159 180.966 363.049 179.81C361.961 178.631 361.417 176.965 361.417 174.812V164.34H364.545V174.608C364.613 177.328 365.984 178.688 368.659 178.688C369.905 178.688 370.948 178.189 371.787 177.192C372.625 176.172 373.045 174.959 373.045 173.554V164.34H376.173V181ZM384.468 181H381.34V164.34H384.332V166.652H384.468C384.944 165.836 385.67 165.156 386.644 164.612C387.642 164.068 388.628 163.796 389.602 163.796C390.826 163.796 391.903 164.079 392.832 164.646C393.762 165.213 394.442 165.995 394.872 166.992C396.255 164.861 398.17 163.796 400.618 163.796C402.545 163.796 404.03 164.385 405.072 165.564C406.115 166.743 406.636 168.42 406.636 170.596V181H403.508V171.072C403.508 169.508 403.225 168.386 402.658 167.706C402.092 167.003 401.14 166.652 399.802 166.652C398.601 166.652 397.592 167.162 396.776 168.182C395.96 169.202 395.552 170.403 395.552 171.786V181H392.424V171.072C392.424 169.508 392.141 168.386 391.574 167.706C391.008 167.003 390.056 166.652 388.718 166.652C387.517 166.652 386.508 167.162 385.692 168.182C384.876 169.202 384.468 170.403 384.468 171.786V181ZM413.766 175.9C413.766 176.716 414.106 177.396 414.786 177.94C415.488 178.484 416.304 178.756 417.234 178.756C418.548 178.756 419.716 178.269 420.736 177.294C421.778 176.319 422.3 175.175 422.3 173.86C421.325 173.089 419.965 172.704 418.22 172.704C416.95 172.704 415.885 173.01 415.024 173.622C414.185 174.234 413.766 174.993 413.766 175.9ZM417.812 163.796C420.124 163.796 421.948 164.419 423.286 165.666C424.623 166.89 425.292 168.579 425.292 170.732V181H422.3V178.688H422.164C420.872 180.592 419.149 181.544 416.996 181.544C415.16 181.544 413.618 181 412.372 179.912C411.148 178.824 410.536 177.464 410.536 175.832C410.536 174.109 411.182 172.738 412.474 171.718C413.788 170.698 415.534 170.188 417.71 170.188C419.568 170.188 421.098 170.528 422.3 171.208V170.494C422.3 169.406 421.869 168.488 421.008 167.74C420.146 166.969 419.138 166.584 417.982 166.584C416.236 166.584 414.854 167.321 413.834 168.794L411.08 167.06C412.598 164.884 414.842 163.796 417.812 163.796ZM430.18 164.34H433.172V166.652H433.308C433.784 165.836 434.509 165.156 435.484 164.612C436.481 164.068 437.512 163.796 438.578 163.796C440.618 163.796 442.182 164.385 443.27 165.564C444.38 166.72 444.936 168.375 444.936 170.528V181H441.808V170.732C441.74 168.012 440.368 166.652 437.694 166.652C436.447 166.652 435.404 167.162 434.566 168.182C433.727 169.179 433.308 170.381 433.308 171.786V181H430.18V164.34ZM454.013 158.594C454.013 159.206 453.798 159.727 453.367 160.158C452.937 160.589 452.415 160.804 451.803 160.804C451.191 160.804 450.67 160.589 450.239 160.158C449.809 159.727 449.593 159.206 449.593 158.594C449.593 157.982 449.809 157.461 450.239 157.03C450.67 156.599 451.191 156.384 451.803 156.384C452.415 156.384 452.937 156.599 453.367 157.03C453.798 157.461 454.013 157.982 454.013 158.594ZM453.367 164.34V181H450.239V164.34H453.367ZM465.228 181.272C463.868 181.272 462.735 180.853 461.828 180.014C460.944 179.175 460.491 178.008 460.468 176.512V167.196H457.544V164.34H460.468V159.24H463.596V164.34H467.676V167.196H463.596V175.492C463.596 176.603 463.811 177.362 464.242 177.77C464.673 178.155 465.16 178.348 465.704 178.348C465.953 178.348 466.191 178.325 466.418 178.28C466.667 178.212 466.894 178.133 467.098 178.042L468.084 180.83C467.268 181.125 466.316 181.272 465.228 181.272ZM487.07 164.34L476.632 188.344H473.402L477.278 179.946L470.41 164.34H473.81L478.774 176.308H478.842L483.67 164.34H487.07Z" fill="#585858"/>
<path d="M118.738 61.7788C116.685 61.7718 114.599 61.8437 112.517 61.9962C104.189 62.6068 95.8858 64.5151 89.8195 67.5159C83.7534 70.5168 80.2362 74.3034 79.8835 78.8091C79.7271 80.8014 80.4164 82.7498 82.0757 84.8261C83.735 86.9024 86.3684 88.9823 89.6717 90.7874C96.2777 94.3976 105.502 96.9053 114.48 97.3386C123.458 97.7719 132.135 96.1002 137.862 92.0564C143.59 88.0129 146.828 81.8873 145.337 71.4098C145.131 69.9625 144.334 68.6703 142.665 67.3514C140.995 66.0321 138.48 64.8217 135.395 63.9042C130.768 62.5276 124.898 61.7995 118.738 61.7788ZM100.151 70.6206C101.517 70.6153 102.711 70.8278 103.629 71.2397C104.546 71.6517 105.16 72.2507 105.417 72.9847C105.624 73.5776 105.593 74.2456 105.327 74.9505C105.061 75.6555 104.564 76.3836 103.865 77.0934C103.166 77.8031 102.279 78.4806 101.253 79.087C100.228 79.6935 99.0844 80.2171 97.8886 80.6279C96.6927 81.0388 95.4678 81.3288 94.2837 81.4815C93.0996 81.6341 91.9795 81.6464 90.9875 81.5177C89.9954 81.3889 89.1508 81.1216 88.5019 80.7309C87.853 80.3403 87.4124 79.8341 87.2054 79.2411C86.7872 78.0438 87.3455 76.5659 88.7573 75.1327C90.1691 73.6995 92.3188 72.4282 94.7337 71.5986C96.5685 70.9681 98.4566 70.6272 100.151 70.6206ZM113.268 103.007C101.247 102.996 89.3136 104.656 80.715 108.103C76.4159 109.826 72.9789 111.987 70.7112 114.439C68.4435 116.892 67.2755 119.54 67.2621 122.846C67.2535 124.942 68.1621 126.519 70.4498 128.204C72.7379 129.89 76.3882 131.378 80.9197 132.431C89.9825 134.539 102.481 134.996 114.884 134.039C127.286 133.083 139.649 130.717 148.493 127.46C152.915 125.831 156.448 123.956 158.586 122.146C160.724 120.336 161.32 118.962 161.154 117.625C160.962 116.086 159.818 114.333 157.297 112.512C154.777 110.691 151.025 108.955 146.495 107.529C137.435 104.678 125.289 103.017 113.268 103.007ZM88.8427 111.921C90.2339 111.96 91.4399 112.221 92.3563 112.681C93.2728 113.141 93.872 113.787 94.102 114.562C94.2877 115.189 94.2285 115.886 93.9278 116.614C93.627 117.342 93.0906 118.087 92.3492 118.806C91.6078 119.525 90.6758 120.205 89.6066 120.805C88.5374 121.406 87.3518 121.916 86.1176 122.306C83.625 123.095 81.0855 123.349 79.0577 123.012C77.0299 122.676 75.68 121.776 75.3048 120.511C74.9297 119.246 75.5601 117.72 77.0573 116.267C78.5546 114.815 80.7961 113.556 83.2886 112.767C85.1827 112.168 87.1186 111.873 88.8427 111.921ZM122.294 139.792C118.458 139.785 114.623 139.873 110.792 140.054C95.3939 140.783 80.0267 143.041 68.5515 146.707C62.814 148.54 58.0583 150.739 54.8174 153.113C51.5762 155.486 49.9704 157.865 49.6807 160.254C49.4353 162.278 50.5371 164.487 53.7216 167.06C56.9065 169.635 61.9595 172.203 68.1774 174.398C80.6125 178.787 97.6874 181.773 114.425 182.295C131.162 182.817 147.607 180.822 158.683 175.772C164.221 173.248 168.359 170.012 170.773 166.13C173.187 162.248 174.057 157.665 172.736 151.672C172.423 150.251 170.854 148.432 167.481 146.712C164.109 144.991 159.204 143.488 153.357 142.365C144.586 140.68 133.69 139.813 122.294 139.792ZM71.4434 153.29C73.828 153.338 76.0016 153.798 77.6459 154.605C79.2902 155.412 80.3188 156.523 80.581 157.775C80.9063 159.329 80.0272 160.986 78.137 162.381C76.2469 163.776 73.5005 164.796 70.502 165.215C67.5036 165.634 64.4988 165.419 62.1484 164.616C59.7981 163.814 58.2948 162.49 57.9692 160.936C57.6439 159.382 58.5229 157.725 60.413 156.33C62.3031 154.934 65.0494 153.915 68.0478 153.496C69.1804 153.337 70.3251 153.268 71.4434 153.29Z" fill="black"/>
</svg>
